<svg width="65" height="64" viewBox="0 0 65 64" fill="none" xmlns="http://www.w3.org/2000/svg">
<path d="M32.3572 53.1506C25.5126 53.1057 18.7536 51.6254 12.5168 48.8053C12.1456 48.6398 11.8305 48.37 11.6099 48.0286C11.3893 47.6872 11.2727 47.289 11.2744 46.8826V29.8207C11.2751 29.2617 11.4974 28.7258 11.8926 28.3306C12.2879 27.9353 12.8237 27.713 13.3827 27.7124H51.3316C51.8906 27.713 52.4264 27.9354 52.8217 28.3306C53.2169 28.7258 53.4392 29.2617 53.4399 29.8207V46.8826C53.4416 47.289 53.325 47.6872 53.1044 48.0286C52.8838 48.37 52.5687 48.6399 52.1975 48.8053C45.9607 51.6254 39.2017 53.1057 32.3572 53.1506Z" fill="#508468"/>
<path d="M32.3523 39.3284C32.071 39.3287 31.7924 39.2727 31.5331 39.1637L1.4401 26.4675C1.05202 26.3038 0.721884 26.0276 0.492248 25.6745C0.262612 25.3214 0.144004 24.9076 0.151721 24.4865C0.159439 24.0654 0.293137 23.6562 0.535556 23.3118C0.777974 22.9674 1.118 22.7034 1.51181 22.5541L31.6052 11.1377C32.0899 10.953 32.6258 10.9541 33.1097 11.1409L62.7998 22.5572C63.1914 22.7078 63.5291 22.9718 63.7698 23.3154C64.0106 23.659 64.1433 24.0666 64.151 24.4861C64.1588 24.9056 64.0412 25.3178 63.8134 25.6701C63.5855 26.0223 63.2577 26.2986 62.872 26.4636L33.1815 39.1596C32.9194 39.2712 32.6373 39.3287 32.3523 39.3284Z" fill="#508468"/>
<path d="M14.7886 49.9663C16.3411 49.9663 17.5996 48.7077 17.5996 47.1553C17.5996 45.6028 16.3411 44.3442 14.7886 44.3442C13.2361 44.3442 11.9775 45.6028 11.9775 47.1553C11.9775 48.7077 13.2361 49.9663 14.7886 49.9663Z" fill="#3F3D56"/>
<path opacity="0.2" d="M62.9753 24.6613L33.2848 37.3574C33.0533 37.4564 32.8042 37.5077 32.5525 37.5083C32.3008 37.5089 32.0515 37.4588 31.8195 37.3609L1.72656 24.6651C1.34863 24.5094 1.03334 24.2323 0.830497 23.8775C0.697803 24.1076 0.615583 24.3633 0.589282 24.6276C0.56298 24.8919 0.593208 25.1587 0.677956 25.4105C0.762703 25.6622 0.900027 25.893 1.08082 26.0876C1.26161 26.2822 1.48173 26.4361 1.72656 26.5391L31.8195 39.2349C32.0515 39.3328 32.3008 39.3829 32.5525 39.3823C32.8042 39.3817 33.0533 39.3304 33.2848 39.2314L62.9753 26.5354C63.2189 26.4315 63.4377 26.2771 63.6172 26.0824C63.7968 25.8877 63.933 25.6572 64.0169 25.406C64.1007 25.1548 64.1304 24.8887 64.1039 24.6252C64.0773 24.3617 63.9952 24.1069 63.8629 23.8774C63.6615 24.2294 63.3495 24.505 62.9753 24.6613Z" fill="black"/>
<path d="M15.0251 47.144C15.1494 47.144 15.2686 47.0947 15.3564 47.0068C15.4443 46.9189 15.4937 46.7998 15.4937 46.6755V30.9987L30.9455 25.3696C31.0698 25.3715 31.1897 25.3239 31.2788 25.2373C31.368 25.1508 31.4191 25.0324 31.421 24.9081C31.4228 24.7838 31.3753 24.6639 31.2887 24.5748C31.2022 24.4856 31.0837 24.4345 30.9595 24.4326L15.5076 30.0617C15.3833 30.0589 15.2596 30.0813 15.1442 30.1276C15.0288 30.1739 14.924 30.2432 14.8361 30.3312C14.7473 30.4182 14.6768 30.5221 14.6288 30.6367C14.5808 30.7514 14.5563 30.8745 14.5566 30.9987V46.6755C14.5567 46.7998 14.606 46.9189 14.6939 47.0068C14.7817 47.0946 14.9009 47.144 15.0251 47.144Z" fill="#3F3D56"/>
</svg>
