<svg width="64" height="64" viewBox="0 0 64 64" fill="none" xmlns="http://www.w3.org/2000/svg">
<path d="M32 0C23.6841 0.00321581 15.6957 3.24214 9.72574 9.03123C3.75574 14.8203 0.272633 22.7052 0.0136161 31.0171C0.00447321 31.3417 0 31.6709 0 32C0 38.329 1.87675 44.5159 5.39295 49.7782C8.90916 55.0406 13.9069 59.1421 19.7541 61.5641C25.6014 63.9861 32.0355 64.6198 38.2429 63.3851C44.4503 62.1504 50.1521 59.1027 54.6274 54.6274C59.1027 50.1521 62.1504 44.4503 63.3851 38.2429C64.6198 32.0355 63.9861 25.6014 61.5641 19.7541C59.1421 13.9069 55.0406 8.90918 49.7783 5.39297C44.5159 1.87677 38.329 0 32 0ZM32 63.0857C23.7582 63.0771 15.8564 59.7993 10.0286 53.9714C4.20072 48.1436 0.922864 40.2418 0.914272 32C0.914272 31.5749 0.923423 31.1543 0.941727 30.7383C1.18927 24.6491 3.22128 18.7669 6.78506 13.8233C10.3488 8.87964 15.2872 5.09263 20.986 2.93313C26.6848 0.773623 32.8927 0.336903 38.8377 1.67728C44.7827 3.01766 50.2026 6.07599 54.4234 10.472C58.6442 14.868 61.4797 20.4077 62.5774 26.4023C63.675 32.3969 62.9863 38.5819 60.5969 44.1882C58.2076 49.7946 54.2229 54.5749 49.1385 57.9348C44.0541 61.2947 38.0942 63.0859 32 63.0857Z" fill="#3F3D56"/>
<path d="M58.9712 31.9999C58.9712 39.1532 56.1296 46.0134 51.0714 51.0716C46.0133 56.1297 39.153 58.9713 31.9998 58.9713C24.8465 58.9713 17.9862 56.1297 12.9281 51.0716C7.86995 46.0134 5.02832 39.1532 5.02832 31.9999C5.02832 31.145 5.06939 30.3039 5.14707 29.4719C5.79704 22.5682 9.08094 16.1801 14.3169 11.634C19.5529 7.08786 26.3386 4.73297 33.2652 5.05829C40.1917 5.38361 46.7268 8.36417 51.5136 13.3811C56.3005 18.3979 58.9711 25.0657 58.9712 31.9999Z" fill="white"/>
<path d="M40.0315 33.7922C39.3777 32.9327 38.5177 32.2519 37.5311 31.8128C36.3141 31.2999 35.0573 30.8871 33.7732 30.5785V23.2368C35.747 23.5344 37.5982 24.3784 39.1172 25.6734L40.6076 22.4962C39.7504 21.7326 38.7665 21.1246 37.7 20.6997C36.5181 20.221 35.2774 19.9028 34.011 19.7534V16.0322H30.5596V19.7899C29.2269 19.9396 27.9412 20.3713 26.7882 21.0562C25.7466 21.6727 24.8698 22.5323 24.2326 23.5614C23.6246 24.5657 23.3095 25.72 23.323 26.8939C23.2636 28.1661 23.6322 29.4215 24.3699 30.4596C25.0489 31.3585 25.9456 32.0696 26.9754 32.5259C28.2118 33.054 29.4903 33.4775 30.7973 33.7922V40.8277C28.4681 40.652 26.2488 39.7665 24.4384 38.2905L22.9482 41.4722C23.9605 42.3091 25.1116 42.962 26.3494 43.4014C27.7056 43.8867 29.1225 44.1821 30.5597 44.2791V47.9682H34.011V44.2105C35.9281 44.001 37.7258 43.1767 39.1355 41.8608C39.7564 41.2654 40.2468 40.5476 40.5757 39.7528C40.9047 38.958 41.065 38.1036 41.0465 37.2437C41.1038 36.012 40.7464 34.7968 40.0315 33.7922ZM30.7973 29.8014C29.9566 29.5464 29.1749 29.1269 28.4978 28.5671C28.2295 28.3284 28.0175 28.0333 27.8768 27.7029C27.7361 27.3725 27.6703 27.0151 27.6842 26.6562C27.6592 25.842 27.9585 25.0512 28.5161 24.4574C29.1344 23.8344 29.932 23.4204 30.7973 23.2734V29.8014ZM35.9402 39.5294C35.357 40.1275 34.5976 40.5231 33.7732 40.6585V34.6059C34.5612 34.8173 35.2983 35.1859 35.9402 35.6894C36.1835 35.8972 36.3769 36.1572 36.5059 36.45C36.6349 36.7429 36.6962 37.061 36.6853 37.3808C36.717 38.1654 36.4509 38.9329 35.9402 39.5294Z" fill="#508468"/>
</svg>
