<svg width="64" height="64" viewBox="0 0 64 64" fill="none" xmlns="http://www.w3.org/2000/svg">
<circle cx="28.5" cy="35.5" r="28.5" fill="white"/>
<path d="M61.2052 51.4016H14.7948C14.0538 51.4007 13.3434 51.106 12.8195 50.5821C12.2956 50.0581 12.0009 49.3477 12 48.6068V15.2386C12.0008 14.4977 12.2956 13.7873 12.8195 13.2633C13.3434 12.7394 14.0538 12.4447 14.7948 12.4438H61.2052C61.9462 12.4447 62.6565 12.7394 63.1805 13.2634C63.7044 13.7873 63.9991 14.4977 64 15.2386V48.6068C63.9991 49.3477 63.7044 50.0581 63.1805 50.582C62.6565 51.106 61.9462 51.4007 61.2052 51.4016Z" fill="#508468"/>
<path d="M15.6529 49.1736H60.3475C60.7069 49.1736 61.0516 49.0308 61.3057 48.7767C61.5598 48.5226 61.7026 48.1779 61.7026 47.8185V16.0267C61.7026 15.6673 61.5598 15.3226 61.3057 15.0685C61.0516 14.8144 60.7069 14.6716 60.3475 14.6716H15.6529C15.2935 14.6716 14.9489 14.8144 14.6947 15.0685C14.4406 15.3226 14.2979 15.6673 14.2979 16.0267V47.8185C14.2979 48.1779 14.4406 48.5226 14.6947 48.7767C14.9489 49.0308 15.2935 49.1736 15.6529 49.1736Z" fill="white"/>
<path d="M55.0201 24.5498H26.4708C26.3369 24.5498 26.2043 24.5762 26.0806 24.6274C25.9569 24.6787 25.8445 24.7538 25.7498 24.8484C25.6551 24.9431 25.58 25.0555 25.5288 25.1792C25.4776 25.3029 25.4512 25.4355 25.4512 25.5694C25.4512 25.7033 25.4776 25.8359 25.5288 25.9596C25.58 26.0833 25.6551 26.1957 25.7498 26.2904C25.8445 26.3851 25.9569 26.4602 26.0806 26.5114C26.2043 26.5627 26.3369 26.589 26.4708 26.589H55.0201C55.2905 26.589 55.5498 26.4816 55.7411 26.2904C55.9323 26.0992 56.0397 25.8398 56.0397 25.5694C56.0397 25.299 55.9323 25.0397 55.7411 24.8484C55.5498 24.6572 55.2905 24.5498 55.0201 24.5498Z" fill="#E6E6E6"/>
<path d="M26.4708 30.8245C26.3369 30.8245 26.2043 30.8508 26.0806 30.9021C25.9569 30.9533 25.8445 31.0284 25.7498 31.1231C25.6551 31.2178 25.58 31.3302 25.5288 31.4539C25.4776 31.5776 25.4512 31.7102 25.4512 31.8441C25.4512 31.978 25.4776 32.1106 25.5288 32.2343C25.58 32.358 25.6551 32.4704 25.7498 32.5651C25.8445 32.6597 25.9569 32.7348 26.0806 32.7861C26.2043 32.8373 26.3369 32.8637 26.4708 32.8637H55.0201C55.2905 32.8637 55.5498 32.7563 55.7411 32.5651C55.9323 32.3738 56.0397 32.1145 56.0397 31.8441C56.0397 31.5737 55.9323 31.3143 55.7411 31.1231C55.5498 30.9319 55.2905 30.8245 55.0201 30.8245H26.4708Z" fill="#E6E6E6"/>
<path d="M26.4708 37.0991C26.2004 37.0991 25.941 37.2065 25.7498 37.3978C25.5586 37.589 25.4512 37.8483 25.4512 38.1187C25.4512 38.3892 25.5586 38.6485 25.7498 38.8397C25.941 39.0309 26.2004 39.1384 26.4708 39.1384H55.0201C55.2905 39.1384 55.5498 39.0309 55.7411 38.8397C55.9323 38.6485 56.0397 38.3892 56.0397 38.1187C56.0397 37.8483 55.9323 37.589 55.7411 37.3978C55.5498 37.2065 55.2905 37.0991 55.0201 37.0991H26.4708Z" fill="#E6E6E6"/>
<path d="M21.0586 26.9029C21.7517 26.9029 22.3135 26.3411 22.3135 25.648C22.3135 24.9549 21.7517 24.3931 21.0586 24.3931C20.3656 24.3931 19.8037 24.9549 19.8037 25.648C19.8037 26.3411 20.3656 26.9029 21.0586 26.9029Z" fill="#508468"/>
<path d="M21.0586 33.1776C21.7517 33.1776 22.3135 32.6157 22.3135 31.9226C22.3135 31.2296 21.7517 30.6677 21.0586 30.6677C20.3656 30.6677 19.8037 31.2296 19.8037 31.9226C19.8037 32.6157 20.3656 33.1776 21.0586 33.1776Z" fill="#E6E6E6"/>
<path d="M21.0586 39.4522C21.7517 39.4522 22.3135 38.8904 22.3135 38.1973C22.3135 37.5042 21.7517 36.9424 21.0586 36.9424C20.3656 36.9424 19.8037 37.5042 19.8037 38.1973C19.8037 38.8904 20.3656 39.4522 21.0586 39.4522Z" fill="#E6E6E6"/>
<path d="M43.6474 25.5694C43.6474 25.7033 43.621 25.8359 43.5698 25.9596C43.5185 26.0833 43.4434 26.1957 43.3487 26.2904C43.2541 26.3851 43.1416 26.4602 43.0179 26.5114C42.8942 26.5627 42.7617 26.589 42.6278 26.589H26.5075C26.2556 26.5927 26.0109 26.5053 25.8184 26.3428C25.6259 26.1804 25.4986 25.9538 25.46 25.7049C25.4409 25.5609 25.4529 25.4145 25.4949 25.2754C25.537 25.1364 25.6082 25.0079 25.7039 24.8986C25.7996 24.7893 25.9175 24.7016 26.0497 24.6415C26.1819 24.5813 26.3255 24.5501 26.4707 24.5498H42.6278C42.8982 24.5498 43.1575 24.6572 43.3487 24.8484C43.5399 25.0397 43.6474 25.299 43.6474 25.5694Z" fill="#508468"/>
<path d="M38.0003 8.15719C40.2528 8.15719 42.0788 6.33119 42.0788 4.07871C42.0788 1.82624 40.2528 0.000244141 38.0003 0.000244141C35.7479 0.000244141 33.9219 1.82624 33.9219 4.07871C33.9219 6.33119 35.7479 8.15719 38.0003 8.15719Z" fill="#508468"/>
<path d="M40.0126 4.4065C40.193 3.29481 39.4381 2.24736 38.3264 2.06696C37.2147 1.88655 36.1672 2.64151 35.9868 3.7532C35.8064 4.8649 36.5614 5.91236 37.6731 6.09276C38.7848 6.27317 39.8322 5.5182 40.0126 4.4065Z" fill="white"/>
</svg>
