<svg width="64" height="64" viewBox="0 0 64 64" fill="none" xmlns="http://www.w3.org/2000/svg">
<g clip-path="url(#clip0_3255_15013)">
<path d="M19.0587 58.8858C29.5846 58.8858 38.1175 50.3529 38.1175 39.827C38.1175 29.3012 29.5846 20.7683 19.0587 20.7683C8.53289 20.7683 0 29.3012 0 39.827C0 50.3529 8.53289 58.8858 19.0587 58.8858Z" fill="#508468"/>
<path d="M27.5779 36.4541H10.5393C9.82414 36.4541 9.13828 36.7382 8.63259 37.2439C8.12689 37.7496 7.84278 38.4354 7.84277 39.1506V56.1892C7.84278 56.9044 8.12689 57.5903 8.63259 58.096C9.13828 58.6017 9.82414 58.8858 10.5393 58.8858H27.5779C28.2931 58.8858 28.979 58.6017 29.4847 58.096C29.9904 57.5903 30.2745 56.9044 30.2745 56.1892V39.1506C30.2745 38.4354 29.9904 37.7496 29.4847 37.2439C28.979 36.7382 28.2931 36.4541 27.5779 36.4541ZM19.0586 53.6517C17.8755 53.6517 16.719 53.3009 15.7353 52.6436C14.7516 51.9863 13.9849 51.0521 13.5322 49.9591C13.0794 48.866 12.961 47.6633 13.1918 46.5029C13.4226 45.3426 13.9923 44.2767 14.8289 43.4402C15.6654 42.6036 16.7313 42.0339 17.8916 41.8031C19.052 41.5723 20.2547 41.6907 21.3478 42.1435C22.4408 42.5962 23.375 43.3629 24.0323 44.3466C24.6896 45.3303 25.0404 46.4869 25.0404 47.6699C25.0404 49.2564 24.4102 50.7779 23.2884 51.8997C22.1666 53.0215 20.6451 53.6517 19.0586 53.6517ZM25.7881 41.6882C25.4924 41.6882 25.2032 41.6005 24.9573 41.4361C24.7114 41.2718 24.5197 41.0382 24.4065 40.765C24.2933 40.4917 24.2637 40.1911 24.3214 39.901C24.3791 39.6109 24.5215 39.3444 24.7307 39.1353C24.9398 38.9261 25.2063 38.7837 25.4964 38.726C25.7865 38.6683 26.0872 38.6979 26.3604 38.8111C26.6337 38.9243 26.8672 39.116 27.0315 39.3619C27.1959 39.6078 27.2836 39.8969 27.2836 40.1927C27.2836 40.5893 27.126 40.9697 26.8456 41.2501C26.5651 41.5306 26.1848 41.6882 25.7881 41.6882Z" fill="white"/>
</g>
<g clip-path="url(#clip1_3255_15013)">
<path d="M44.9132 44.899C55.4391 44.899 63.972 36.3661 63.972 25.8402C63.972 15.3144 55.4391 6.78149 44.9132 6.78149C34.3874 6.78149 25.8545 15.3144 25.8545 25.8402C25.8545 36.3661 34.3874 44.899 44.9132 44.899Z" fill="#508468"/>
<path d="M53.4324 22.4673H36.3938C35.6786 22.4673 34.9928 22.7514 34.4871 23.257C33.9814 23.7627 33.6973 24.4486 33.6973 25.1638V42.2024C33.6973 42.9176 33.9814 43.6035 34.4871 44.1092C34.9928 44.6148 35.6786 44.899 36.3938 44.899H53.4324C54.1476 44.899 54.8334 44.6148 55.3391 44.1092C55.8448 43.6035 56.1289 42.9176 56.1289 42.2024V25.1638C56.1289 24.4486 55.8448 23.7627 55.3391 23.257C54.8334 22.7514 54.1476 22.4673 53.4324 22.4673ZM50.2331 28.2197H48.2791C46.945 28.2197 46.6853 28.8514 46.6853 29.7841V31.7616H49.867L49.4538 34.8666H46.6794V42.9632C45.4931 43.1859 44.2755 43.183 43.0903 42.9547V34.8666H40.546V31.7616H43.1376V29.4654C43.1376 26.7203 45.0443 25.221 47.4999 25.221C48.6805 25.221 49.9438 25.3096 50.2331 25.3508L50.2331 28.2197Z" fill="white"/>
</g>
<defs>
<clipPath id="clip0_3255_15013">
<rect y="20.7683" width="38.1175" height="38.1175" rx="19.0587" fill="white"/>
</clipPath>
<clipPath id="clip1_3255_15013">
<rect x="25.8545" y="6.78149" width="38.1175" height="38.1175" rx="19.0587" fill="white"/>
</clipPath>
</defs>
</svg>
