<svg width="20" height="20" viewBox="0 0 20 20" fill="none" xmlns="http://www.w3.org/2000/svg">
<g clip-path="url(#clip0_2919_10875)" filter="url(#filter0_i_2919_10875)">
<path d="M1.42911 10.7142C1.61856 10.7142 1.80021 10.639 1.9342 10.505C2.06812 10.3711 2.14338 10.1894 2.14338 9.99996C2.14175 8.34046 2.6661 6.72313 3.6413 5.38029C4.61643 4.03746 5.99213 3.03829 7.57063 2.52629C9.14928 2.01438 10.8495 2.01594 12.4271 2.53085C14.0047 3.04577 15.3786 4.04752 16.3513 5.39218L14.5006 5.01503C14.3119 4.96868 14.1124 5.00117 13.9482 5.10507C13.784 5.20898 13.6692 5.37532 13.6303 5.56575C13.5914 5.75612 13.6317 5.95417 13.7421 6.11412C13.8524 6.27415 14.0231 6.38229 14.2149 6.41361L17.7149 7.12785V7.12792C17.7619 7.13775 17.8097 7.14276 17.8578 7.14289C18.0222 7.14263 18.1815 7.0856 18.3088 6.9815C18.436 6.8774 18.5235 6.7326 18.5564 6.57147L19.2706 3.07147C19.317 2.88273 19.2845 2.68332 19.1806 2.51905C19.0767 2.35486 18.9103 2.24002 18.7199 2.20115C18.5295 2.16228 18.3315 2.20258 18.1715 2.31293C18.0116 2.42322 17.9034 2.59398 17.872 2.78578L17.5113 4.54928H17.5113C16.3603 2.96127 14.7358 1.77878 12.871 1.17128C11.0062 0.5638 8.99684 0.562683 7.13134 1.16803C5.26584 1.77343 3.64018 2.95419 2.48734 4.54103C1.33451 6.12786 0.714011 8.03886 0.714845 10C0.714845 10.1895 0.790105 10.3711 0.924095 10.5051C1.05801 10.6391 1.23973 10.7143 1.42918 10.7143L1.42911 10.7142Z" fill="#508468"/>
<path d="M18.5722 9.28537C18.3828 9.28537 18.2011 9.36057 18.0671 9.49455C17.9332 9.62854 17.8579 9.81019 17.8579 9.99964C17.8596 11.6591 17.3352 13.2765 16.36 14.6193C15.3849 15.9621 14.0092 16.9613 12.4307 17.4733C10.852 17.9852 9.15185 17.9837 7.57419 17.4687C5.99658 16.9538 4.62268 15.9521 3.65002 14.6074L5.50002 14.9846C5.68875 15.0309 5.88824 14.9984 6.05244 14.8945C6.21663 14.7906 6.33147 14.6243 6.37033 14.4338C6.40927 14.2435 6.3689 14.0454 6.25855 13.8855C6.14826 13.7254 5.9775 13.6173 5.78577 13.586L2.28577 12.8717V12.8717C2.10028 12.834 1.90745 12.8714 1.74957 12.9756C1.59169 13.08 1.4816 13.2427 1.44358 13.4281L0.729334 16.9281C0.691379 17.1137 0.728683 17.3067 0.833046 17.4648C0.937343 17.6228 1.10023 17.7329 1.28578 17.7709C1.33278 17.7806 1.38064 17.7853 1.42862 17.7853C1.59301 17.7849 1.75232 17.7279 1.8796 17.6238C2.00688 17.5197 2.09432 17.3749 2.12718 17.2138L2.48435 15.4503C3.63455 17.0407 5.25935 18.2256 7.12519 18.8344C8.99102 19.4435 11.002 19.4452 12.869 18.8396C14.736 18.2339 16.363 17.0521 17.516 15.4636C18.6691 13.8752 19.2889 11.9623 19.2865 9.99942C19.2865 9.80997 19.2113 9.62832 19.0773 9.49434C18.9434 9.36035 18.7616 9.28516 18.5722 9.28516L18.5722 9.28537Z" fill="#508468"/>
<path d="M8.19179 6.42871C7.7246 6.4291 7.27662 6.61484 6.94622 6.94524C6.61582 7.27564 6.43007 7.72363 6.42969 8.19081V11.8095C6.43008 12.2767 6.61582 12.7246 6.94622 13.055C7.27662 13.3854 7.7246 13.5712 8.19179 13.5716H11.8105C12.2776 13.5712 12.7256 13.3854 13.056 13.055C13.3864 12.7246 13.5722 12.2767 13.5726 11.8095V8.19081C13.5722 7.72363 13.3864 7.27564 13.056 6.94524C12.7256 6.61484 12.2776 6.42909 11.8105 6.42871H8.19179ZM12.144 8.19088V11.8095C12.144 11.898 12.1088 11.9828 12.0463 12.0454C11.9837 12.1079 11.8989 12.1431 11.8104 12.1431H8.19176C8.10329 12.1431 8.01846 12.1079 7.9559 12.0454C7.8934 11.9828 7.85824 11.898 7.85824 11.8095V8.19088C7.85824 8.1024 7.8934 8.01758 7.9559 7.95501C8.01846 7.89251 8.10329 7.85735 8.19176 7.85735H11.8104C11.8989 7.85735 11.9837 7.89251 12.0463 7.95501C12.1088 8.01758 12.144 8.10241 12.144 8.19088Z" fill="#508468"/>
</g>
<defs>
<filter id="filter0_i_2919_10875" x="0" y="0" width="20" height="24" filterUnits="userSpaceOnUse" color-interpolation-filters="sRGB">
<feFlood flood-opacity="0" result="BackgroundImageFix"/>
<feBlend mode="normal" in="SourceGraphic" in2="BackgroundImageFix" result="shape"/>
<feColorMatrix in="SourceAlpha" type="matrix" values="0 0 0 0 0 0 0 0 0 0 0 0 0 0 0 0 0 0 127 0" result="hardAlpha"/>
<feOffset dy="4"/>
<feGaussianBlur stdDeviation="2"/>
<feComposite in2="hardAlpha" operator="arithmetic" k2="-1" k3="1"/>
<feColorMatrix type="matrix" values="0 0 0 0 0 0 0 0 0 0 0 0 0 0 0 0 0 0 0.25 0"/>
<feBlend mode="normal" in2="shape" result="effect1_innerShadow_2919_10875"/>
</filter>
<clipPath id="clip0_2919_10875">
<rect width="20" height="20" fill="white"/>
</clipPath>
</defs>
</svg>
