<svg width="20" height="20" viewBox="0 0 20 20" fill="none" xmlns="http://www.w3.org/2000/svg">
<path d="M17.4242 4.85352C17.4242 4.58835 17.3188 4.33398 17.1313 4.14642C16.9437 3.95892 16.6893 3.85352 16.4242 3.85352H3.57617C3.31101 3.85352 3.05664 3.95892 2.86907 4.14642C2.68157 4.33398 2.57617 4.58835 2.57617 4.85352V6.30553C2.57669 6.53112 2.65339 6.74987 2.79394 6.92637C2.93443 7.1028 3.13046 7.22657 3.35019 7.27753V13.9455C3.35019 14.529 3.58196 15.0886 3.99452 15.5011C4.40716 15.9137 4.96672 16.1455 5.55019 16.1455H14.4502C15.0337 16.1455 15.5932 15.9137 16.0059 15.5011C16.4184 15.0886 16.6502 14.529 16.6502 13.9455V7.27553C16.8699 7.22456 17.0659 7.1008 17.2064 6.92437C17.347 6.74793 17.4237 6.52912 17.4242 6.30353L17.4242 4.85352ZM15.4502 13.9455C15.4502 14.2107 15.3448 14.465 15.1573 14.6526C14.9698 14.8401 14.7154 14.9455 14.4502 14.9455H5.55017C5.28494 14.9455 5.03057 14.8401 4.84307 14.6526C4.65551 14.465 4.55017 14.2107 4.55017 13.9455V7.30352H15.4502V13.9455ZM16.2242 6.10352L3.77619 6.10345V5.05345H16.2242V6.10352Z" fill="#508468"/>
<path d="M7.51605 9.4998H12.4841C12.6984 9.4998 12.8965 9.38542 13.0037 9.1998C13.1109 9.01419 13.1109 8.78542 13.0037 8.5998C12.8965 8.41419 12.6985 8.2998 12.4841 8.2998H7.51605C7.30167 8.2998 7.10362 8.41419 6.99639 8.5998C6.88923 8.78542 6.88923 9.01419 6.99639 9.1998C7.10361 9.38542 7.30165 9.4998 7.51605 9.4998Z" fill="#508468"/>
</svg>
