<svg width="64" height="64" viewBox="0 0 64 64" fill="none" xmlns="http://www.w3.org/2000/svg">
<path d="M37.79 47C37.79 45 40.88 39.6 42.93 36C43.8104 34.5941 44.5891 33.1271 45.26 31.61C45.7154 30.193 45.9646 28.7179 46 27.23C46 23.5169 44.525 19.956 41.8995 17.3305C39.274 14.705 35.713 13.23 32 13.23C28.287 13.23 24.726 14.705 22.1005 17.3305C19.475 19.956 18 23.5169 18 27.23C18.0325 28.728 18.2817 30.2134 18.74 31.64C19.4122 33.1468 20.1908 34.6038 21.07 36C23.12 39.57 26.21 45 26.21 47C26.21 47.2652 26.3154 47.5196 26.5029 47.7071C26.6904 47.8946 26.9448 48 27.21 48H36.79C37.0552 48 37.3096 47.8946 37.4971 47.7071C37.6846 47.5196 37.79 47.2652 37.79 47ZM35.91 46H28.09C27.58 43.5 25.39 39.54 22.81 35C22.0102 33.7079 21.2824 32.3725 20.63 31C20.2434 29.7793 20.0313 28.5101 20 27.23C20 24.0474 21.2643 20.9951 23.5147 18.7447C25.7652 16.4943 28.8174 15.23 32 15.23C35.1826 15.23 38.2348 16.4943 40.4853 18.7447C42.7357 20.9951 44 24.0474 44 27.23C43.9687 28.5101 43.7566 29.7793 43.37 31C42.7176 32.3725 41.9898 33.7079 41.19 35C38.61 39.54 36.42 43.5 35.91 46Z" fill="#333333"/>
<path d="M35.4995 59.2101L34.1295 60.0001H29.8695L28.4995 59.2101C28.2688 59.0775 27.9948 59.042 27.7379 59.1114C27.481 59.1808 27.2621 59.3494 27.1295 59.5801C26.9969 59.8108 26.9614 60.0848 27.0308 60.3417C27.1002 60.5987 27.2688 60.8175 27.4995 60.9501L29.0995 61.8701C29.2529 61.954 29.4247 61.9987 29.5995 62.0001H34.3995C34.5744 61.9987 34.7461 61.954 34.8995 61.8701L36.4995 61.0001C36.6138 60.9344 36.714 60.8469 36.7944 60.7425C36.8748 60.6382 36.9339 60.519 36.9683 60.3917C37.0026 60.2645 37.0116 60.1318 36.9947 60.0011C36.9777 59.8704 36.9352 59.7444 36.8695 59.6301C36.8039 59.5159 36.7164 59.4157 36.612 59.3352C36.5076 59.2548 36.3884 59.1957 36.2612 59.1614C36.134 59.127 36.0012 59.118 35.8705 59.135C35.7399 59.1519 35.6138 59.1944 35.4995 59.2601V59.2101Z" fill="#333333"/>
<path d="M35.9005 49.2099L27.9005 49.9999C27.6353 50.0132 27.3862 50.1313 27.208 50.3282C27.0298 50.5251 26.9372 50.7847 26.9505 51.0499C26.9637 51.3151 27.0818 51.5642 27.2787 51.7424C27.4756 51.9205 27.7353 52.0132 28.0005 51.9999H28.1005L36.1005 51.1999C36.232 51.1874 36.3598 51.149 36.4765 51.0868C36.5931 51.0246 36.6962 50.9399 36.7799 50.8376C36.8636 50.7353 36.9262 50.6175 36.964 50.4909C37.0019 50.3642 37.0143 50.2314 37.0005 50.0999C36.9867 49.9692 36.9474 49.8425 36.8847 49.7271C36.822 49.6116 36.7371 49.5096 36.6349 49.4269C36.5328 49.3443 36.4153 49.2826 36.2893 49.2453C36.1633 49.2081 36.0311 49.1961 35.9005 49.2099Z" fill="#333333"/>
<path d="M35.9005 52.2099L27.9005 52.9999C27.6353 53.0132 27.3862 53.1313 27.208 53.3282C27.0298 53.5251 26.9372 53.7847 26.9505 54.0499C26.9637 54.3151 27.0818 54.5642 27.2787 54.7424C27.4756 54.9205 27.7353 55.0132 28.0005 54.9999H28.1005L36.1005 54.1999C36.232 54.1874 36.3598 54.149 36.4765 54.0868C36.5931 54.0246 36.6962 53.9399 36.7799 53.8376C36.8636 53.7353 36.9262 53.6175 36.964 53.4909C37.0019 53.3642 37.0143 53.2314 37.0005 53.0999C36.9867 52.9692 36.9474 52.8425 36.8847 52.7271C36.822 52.6116 36.7371 52.5096 36.6349 52.4269C36.5328 52.3443 36.4153 52.2826 36.2893 52.2453C36.1633 52.2081 36.0311 52.1961 35.9005 52.2099Z" fill="#333333"/>
<path d="M35.9005 55.2099L27.9005 55.9999C27.6353 56.0132 27.3862 56.1313 27.208 56.3282C27.0298 56.5251 26.9372 56.7847 26.9505 57.0499C26.9637 57.3151 27.0818 57.5642 27.2787 57.7424C27.4756 57.9205 27.7353 58.0132 28.0005 57.9999H28.1005L36.1005 57.1999C36.232 57.1874 36.3598 57.149 36.4765 57.0868C36.5931 57.0246 36.6962 56.9399 36.7799 56.8376C36.8636 56.7353 36.9262 56.6175 36.964 56.4909C37.0019 56.3642 37.0143 56.2314 37.0005 56.0999C36.9867 55.9692 36.9474 55.8425 36.8847 55.7271C36.822 55.6116 36.7371 55.5096 36.6349 55.4269C36.5328 55.3443 36.4153 55.2826 36.2893 55.2453C36.1633 55.2081 36.0311 55.1961 35.9005 55.2099Z" fill="#333333"/>
<path d="M31 3V10C31 10.2652 31.1054 10.5196 31.2929 10.7071C31.4804 10.8946 31.7348 11 32 11C32.2652 11 32.5196 10.8946 32.7071 10.7071C32.8946 10.5196 33 10.2652 33 10V3C33 2.73478 32.8946 2.48043 32.7071 2.29289C32.5196 2.10536 32.2652 2 32 2C31.7348 2 31.4804 2.10536 31.2929 2.29289C31.1054 2.48043 31 2.73478 31 3Z" fill="#333333"/>
<path d="M45.4401 16L50.3801 11C50.5018 10.8081 50.5545 10.5805 50.5295 10.3546C50.5045 10.1288 50.4033 9.91817 50.2427 9.75749C50.082 9.59682 49.8714 9.49566 49.6455 9.47067C49.4197 9.44568 49.1921 9.49835 49.0001 9.62L44.0501 14.62C43.866 14.7995 43.758 15.043 43.7487 15.3C43.7394 15.557 43.8294 15.8077 44.0001 16C44.0936 16.0927 44.2044 16.166 44.3262 16.2158C44.4481 16.2655 44.5785 16.2908 44.7101 16.29C44.8451 16.2934 44.9794 16.2695 45.1048 16.2197C45.2303 16.1698 45.3443 16.0951 45.4401 16Z" fill="#333333"/>
<path d="M58 28C58 27.7348 57.8946 27.4804 57.7071 27.2929C57.5196 27.1054 57.2652 27 57 27H50C49.7348 27 49.4804 27.1054 49.2929 27.2929C49.1054 27.4804 49 27.7348 49 28C49 28.2652 49.1054 28.5196 49.2929 28.7071C49.4804 28.8946 49.7348 29 50 29H57C57.2652 29 57.5196 28.8946 57.7071 28.7071C57.8946 28.5196 58 28.2652 58 28Z" fill="#333333"/>
<path d="M48.9998 46.3801C49.0924 46.4746 49.2028 46.5498 49.3247 46.6013C49.4466 46.6528 49.5775 46.6796 49.7098 46.6801C49.9076 46.6793 50.1006 46.6198 50.2646 46.5093C50.4286 46.3987 50.5561 46.242 50.631 46.059C50.706 45.8759 50.7249 45.6748 50.6856 45.481C50.6462 45.2872 50.5502 45.1094 50.4098 44.9701L45.4398 40.0001C45.3465 39.9033 45.2347 39.8264 45.1109 39.7738C44.9872 39.7212 44.8542 39.6941 44.7198 39.6941C44.5854 39.6941 44.4523 39.7212 44.3286 39.7738C44.2049 39.8264 44.0931 39.9033 43.9998 40.0001C43.8135 40.1875 43.709 40.4409 43.709 40.7051C43.709 40.9693 43.8135 41.2228 43.9998 41.4101L48.9998 46.3801Z" fill="#333333"/>
<path d="M14.32 46.6799C14.4523 46.6794 14.5832 46.6526 14.7051 46.6011C14.827 46.5496 14.9374 46.4744 15.03 46.3799L20.03 41.3799C20.2033 41.1901 20.2969 40.9409 20.2913 40.6839C20.2857 40.4269 20.1814 40.182 20 39.9999C19.9071 39.9062 19.7965 39.8318 19.6746 39.781C19.5527 39.7302 19.422 39.7041 19.29 39.7041C19.158 39.7041 19.0273 39.7302 18.9055 39.781C18.7836 39.8318 18.673 39.9062 18.58 39.9999L13.62 44.9999C13.4796 45.1392 13.3836 45.317 13.3442 45.5108C13.3049 45.7046 13.3238 45.9057 13.3988 46.0888C13.4737 46.2718 13.6012 46.4285 13.7652 46.5391C13.9292 46.6496 14.1223 46.7091 14.32 46.7099V46.6799Z" fill="#333333"/>
<path d="M7 29H14C14.2652 29 14.5196 28.8946 14.7071 28.7071C14.8946 28.5196 15 28.2652 15 28C15 27.7348 14.8946 27.4804 14.7071 27.2929C14.5196 27.1054 14.2652 27 14 27H7C6.73478 27 6.48043 27.1054 6.29289 27.2929C6.10536 27.4804 6 27.7348 6 28C6 28.2652 6.10536 28.5196 6.29289 28.7071C6.48043 28.8946 6.73478 29 7 29Z" fill="#333333"/>
<path d="M13.6209 9.61989C13.4346 9.80725 13.3301 10.0607 13.3301 10.3249C13.3301 10.5891 13.4346 10.8425 13.6209 11.0299L18.5609 16.0299C18.6543 16.1226 18.7651 16.1959 18.887 16.2457C19.0088 16.2954 19.1393 16.3206 19.2709 16.3199C19.408 16.3194 19.5435 16.2908 19.6691 16.2358C19.7947 16.1807 19.9076 16.1004 20.0009 15.9999C20.1871 15.8125 20.2917 15.5591 20.2917 15.2949C20.2917 15.0307 20.1871 14.7772 20.0009 14.5899L15.0009 9.58989C14.8111 9.41659 14.5618 9.32302 14.3049 9.32861C14.0479 9.33419 13.803 9.4385 13.6209 9.61989Z" fill="#333333"/>
<path d="M37.6797 29.0501L31.9997 31.0001L26.3197 29.1001C26.148 29.0353 25.9617 29.0191 25.7814 29.0531C25.601 29.0871 25.4335 29.1701 25.2972 29.293C25.1609 29.4159 25.061 29.574 25.0086 29.7498C24.9561 29.9257 24.953 30.1126 24.9997 30.2901L28.9997 43.2901C29.0378 43.4214 29.1013 43.544 29.1868 43.6507C29.2722 43.7575 29.3778 43.8463 29.4976 43.9123C29.6174 43.9782 29.749 44.0199 29.8849 44.035C30.0208 44.05 30.1584 44.0382 30.2897 44.0001C30.421 43.962 30.5435 43.8984 30.6503 43.813C30.757 43.7276 30.8459 43.6219 30.9118 43.5022C30.9778 43.3824 31.0195 43.2508 31.0345 43.1149C31.0496 42.979 31.0378 42.8414 30.9997 42.7101L27.5297 31.5601L31.6797 33.0001C31.8873 33.0702 32.1121 33.0702 32.3197 33.0001L36.4697 31.6101L32.9997 42.7101C32.9556 42.8413 32.9392 42.9802 32.9515 43.1181C32.9639 43.2559 33.0047 43.3897 33.0715 43.511C33.1382 43.6322 33.2294 43.7383 33.3392 43.8225C33.4491 43.9067 33.5752 43.9672 33.7097 44.0001C33.8057 44.0154 33.9036 44.0154 33.9997 44.0001C34.2215 44.0096 34.4402 43.945 34.6213 43.8164C34.8024 43.6878 34.9355 43.5027 34.9997 43.2901L38.9997 30.2901C39.0539 30.1138 39.0583 29.926 39.0124 29.7473C38.9666 29.5687 38.8722 29.4062 38.7397 29.2779C38.6072 29.1495 38.4418 29.0603 38.2618 29.0201C38.0818 28.9799 37.8942 28.9903 37.7197 29.0501H37.6797Z" fill="#333333"/>
</svg>
