<svg width="52" height="42" viewBox="0 0 52 42" fill="none" xmlns="http://www.w3.org/2000/svg">
<path d="M26.0001 11.4001C21.2951 11.4001 17.4668 15.2284 17.4668 19.9335C17.4668 24.6385 21.2951 28.4668 26.0001 28.4668C30.7052 28.4668 34.5335 24.6385 34.5335 19.9335C34.5335 15.2284 30.7052 11.4001 26.0001 11.4001ZM26.0001 26.3335C22.4705 26.3335 19.6001 23.4631 19.6001 19.9335C19.6001 16.4039 22.4705 13.5335 26.0001 13.5335C29.5297 13.5335 32.4001 16.4039 32.4001 19.9335C32.4001 23.4631 29.5297 26.3335 26.0001 26.3335Z" fill="#333333"/>
<path d="M30.2661 39.1333H14.2661V37C14.2661 33.5835 16.1061 30.3963 19.0672 28.6821C19.5771 28.3877 19.752 27.7349 19.4555 27.2251C19.1621 26.7152 18.5093 26.5381 17.9984 26.8368C14.3803 28.9296 12.1328 32.824 12.1328 37V40.2C12.1328 40.7899 12.6096 41.2667 13.1995 41.2667H30.2661C30.856 41.2667 31.3328 40.7899 31.3328 40.2C31.3328 39.6101 30.856 39.1333 30.2661 39.1333Z" fill="#333333"/>
<path d="M34.0012 26.838C33.4892 26.5404 32.8375 26.7164 32.5441 27.2263C32.2487 27.7372 32.4236 28.389 32.9324 28.6834C35.8935 30.3964 37.7335 33.5826 37.7335 37.0002V39.1335H35.6001C35.0103 39.1335 34.5335 39.6103 34.5335 40.2002C34.5335 40.79 35.0103 41.2668 35.6001 41.2668H38.8001C39.39 41.2668 39.8668 40.79 39.8668 40.2002V37.0002C39.8668 32.8242 37.6193 28.9298 34.0012 26.838Z" fill="#333333"/>
<path d="M12.1346 15.6667C16.2509 15.6667 19.6013 12.3163 19.6013 8.20006C19.6013 4.0838 16.2509 0.733398 12.1346 0.733398C8.01837 0.733398 4.66797 4.0838 4.66797 8.20006C4.66797 12.3163 8.01837 15.6667 12.1346 15.6667ZM12.1346 2.86673C15.0754 2.86673 17.468 5.25926 17.468 8.20006C17.468 11.1409 15.0754 13.5334 12.1346 13.5334C9.19384 13.5334 6.8013 11.1409 6.8013 8.20006C6.8013 5.25926 9.19384 2.86673 12.1346 2.86673Z" fill="#333333"/>
<path d="M16.4004 24.2002C16.4004 23.6103 15.9236 23.1335 15.3337 23.1335H2.53372V21.0002C2.53372 18.7218 3.55452 16.597 5.33479 15.1698C5.79452 14.8007 5.86812 14.1298 5.49906 13.6701C5.13106 13.2114 4.46012 13.1389 3.99932 13.5058C1.71132 15.3394 0.400391 18.0722 0.400391 21.0002V24.2002C0.400391 24.7901 0.877191 25.2669 1.46706 25.2669H15.3337C15.9236 25.2669 16.4004 24.7901 16.4004 24.2002Z" fill="#333333"/>
<path d="M39.8671 15.6667C43.9833 15.6667 47.3337 12.3163 47.3337 8.20006C47.3337 4.0838 43.9833 0.733398 39.8671 0.733398C35.7508 0.733398 32.4004 4.0838 32.4004 8.20006C32.4004 12.3163 35.7508 15.6667 39.8671 15.6667ZM39.8671 2.86673C42.8079 2.86673 45.2004 5.25926 45.2004 8.20006C45.2004 11.1409 42.8079 13.5334 39.8671 13.5334C36.9263 13.5334 34.5337 11.1409 34.5337 8.20006C34.5337 5.25926 36.9263 2.86673 39.8671 2.86673Z" fill="#333333"/>
<path d="M48.0721 13.814C47.6497 13.4076 46.9735 13.4182 46.5639 13.8428C46.1553 14.2662 46.1681 14.9425 46.5927 15.351C48.3377 17.031 49.4663 19.6668 49.4663 22.0668V23.1334H36.6663C36.0764 23.1334 35.5996 23.6102 35.5996 24.2001C35.5996 24.79 36.0764 25.2668 36.6663 25.2668H50.5329C51.1228 25.2668 51.5996 24.79 51.5996 24.2001V22.0668C51.5996 19.0694 50.2481 15.9089 48.0721 13.814Z" fill="#333333"/>
</svg>
