<svg width="22" height="22" viewBox="0 0 22 22" fill="none" xmlns="http://www.w3.org/2000/svg">
<path d="M10.9992 7.35599C8.99212 7.35599 7.35423 8.99388 7.35423 11.0009C7.35423 13.0079 8.99212 14.6458 10.9992 14.6458C13.0062 14.6458 14.6441 13.0079 14.6441 11.0009C14.6441 8.99388 13.0062 7.35599 10.9992 7.35599ZM21.9312 11.0009C21.9312 9.49154 21.9449 7.99583 21.8601 6.48919C21.7753 4.73919 21.3761 3.18607 20.0964 1.90638C18.814 0.623958 17.2636 0.227473 15.5136 0.142708C14.0042 0.0579422 12.5085 0.0716141 11.0019 0.0716141C9.49251 0.0716141 7.99681 0.0579422 6.49017 0.142708C4.74017 0.227473 3.18704 0.626692 1.90736 1.90638C0.624934 3.1888 0.22845 4.73919 0.143684 6.48919C0.0589188 7.99857 0.0725907 9.49427 0.0725907 11.0009C0.0725907 12.5076 0.0589188 14.006 0.143684 15.5126C0.22845 17.2626 0.627669 18.8158 1.90736 20.0954C3.18978 21.3779 4.74017 21.7743 6.49017 21.8591C7.99954 21.9439 9.49524 21.9302 11.0019 21.9302C12.5113 21.9302 14.007 21.9439 15.5136 21.8591C17.2636 21.7743 18.8167 21.3751 20.0964 20.0954C21.3788 18.813 21.7753 17.2626 21.8601 15.5126C21.9476 14.006 21.9312 12.5103 21.9312 11.0009ZM10.9992 16.6091C7.89564 16.6091 5.39095 14.1044 5.39095 11.0009C5.39095 7.8974 7.89564 5.39271 10.9992 5.39271C14.1027 5.39271 16.6074 7.8974 16.6074 11.0009C16.6074 14.1044 14.1027 16.6091 10.9992 16.6091ZM16.837 6.47279C16.1124 6.47279 15.5273 5.88763 15.5273 5.16302C15.5273 4.43841 16.1124 3.85325 16.837 3.85325C17.5617 3.85325 18.1468 4.43841 18.1468 5.16302C18.147 5.33508 18.1133 5.5055 18.0475 5.6645C17.9818 5.82351 17.8853 5.96798 17.7637 6.08965C17.642 6.21131 17.4975 6.30778 17.3385 6.37353C17.1795 6.43927 17.0091 6.473 16.837 6.47279Z" fill="#AAAFB6"/>
</svg>
