<svg width="40" height="40" viewBox="0 0 40 40" fill="none" xmlns="http://www.w3.org/2000/svg">
<path d="M10.143 39.8585C7.76414 39.7504 6.4719 39.3545 5.61239 39.0192C4.4735 38.5758 3.66155 38.048 2.80679 37.1944C1.95203 36.3408 1.42301 35.5289 0.98196 34.39C0.646714 33.5305 0.25084 32.2382 0.142658 29.8594C0.0237763 27.288 0 26.5165 0 20.0018C0 13.4871 0.0261539 12.7167 0.141469 10.143C0.249651 7.76414 0.647903 6.47428 0.980771 5.61239C1.4242 4.4735 1.95322 3.66154 2.8056 2.8056C3.65917 1.95203 4.47113 1.42182 5.6112 0.980771C6.47071 0.645526 7.76295 0.249651 10.1418 0.141469C12.7144 0.0237763 13.4871 0 19.9994 0C26.5141 0 27.2845 0.0261539 29.8582 0.141469C32.2371 0.249651 33.5269 0.647903 34.3888 0.980771C35.5277 1.42182 36.3396 1.95203 37.1944 2.8056C38.0492 3.65917 38.5758 4.47232 39.0192 5.6112C39.3545 6.47071 39.7504 7.76295 39.8585 10.1418C39.9762 12.7155 40 13.4859 40 20.0006C40 26.5129 39.9762 27.2856 39.8585 29.8594C39.7504 32.2382 39.3521 33.5305 39.0192 34.39C38.5758 35.5289 38.048 36.3408 37.1944 37.1944C36.3408 38.048 35.5277 38.5758 34.3888 39.0192C33.5293 39.3545 32.2371 39.7504 29.8582 39.8585C27.2868 39.9762 26.5141 40 19.9994 40C13.4871 40 12.7144 39.9774 10.143 39.8585Z" fill="#333333"/>
<path d="M15.4621 19.8584C15.4621 17.43 17.4302 15.4608 19.8587 15.4608C22.2871 15.4608 24.2562 17.43 24.2562 19.8584C24.2562 22.2868 22.2871 24.256 19.8587 24.256C17.4302 24.256 15.4621 22.2868 15.4621 19.8584ZM13.0849 19.8584C13.0849 23.5996 16.1175 26.6322 19.8587 26.6322C23.5998 26.6322 26.6324 23.5996 26.6324 19.8584C26.6324 16.1173 23.5998 13.0847 19.8587 13.0847C16.1175 13.0847 13.085 16.117 13.085 19.8584M25.3177 12.8161C25.3176 13.1292 25.4103 13.4353 25.5841 13.6956C25.758 13.956 26.0051 14.159 26.2943 14.279C26.5835 14.3989 26.9018 14.4304 27.2089 14.3694C27.516 14.3085 27.7981 14.1578 28.0196 13.9365C28.2411 13.7152 28.3919 13.4332 28.4531 13.1262C28.5143 12.8191 28.4831 12.5008 28.3634 12.2115C28.2437 11.9222 28.0409 11.6749 27.7807 11.5008C27.5204 11.3268 27.2144 11.2338 26.9013 11.2337H26.9007C26.481 11.2339 26.0786 11.4007 25.7818 11.6973C25.485 11.994 25.318 12.3964 25.3177 12.8161ZM14.5292 30.5962C13.2431 30.5376 12.544 30.3234 12.0795 30.1424C11.4636 29.9027 11.0241 29.6171 10.5621 29.1557C10.1001 28.6943 9.8141 28.2553 9.57539 27.6394C9.39429 27.175 9.18006 26.4758 9.12159 25.1896C9.05764 23.7991 9.04487 23.3814 9.04487 19.8586C9.04487 16.3358 9.05869 15.9193 9.12159 14.5276C9.18016 13.2415 9.39598 12.5436 9.57539 12.0779C9.81516 11.462 10.1007 11.0225 10.5621 10.5605C11.0235 10.0985 11.4625 9.81249 12.0795 9.57377C12.5438 9.39267 13.2431 9.17844 14.5292 9.11998C15.9197 9.05602 16.3374 9.04325 19.8587 9.04325C23.3799 9.04325 23.798 9.05687 25.1897 9.12019C26.4758 9.17876 27.1737 9.39457 27.6394 9.57398C28.2553 9.8127 28.6948 10.0993 29.1568 10.5607C29.6188 11.0221 29.9037 11.4622 30.1435 12.0781C30.3246 12.5424 30.5388 13.2417 30.5973 14.5278C30.6613 15.9195 30.674 16.336 30.674 19.8588C30.674 23.3816 30.6613 23.7982 30.5973 25.1899C30.5387 26.476 30.3234 27.175 30.1435 27.6396C29.9037 28.2555 29.6182 28.6949 29.1568 29.1559C28.6954 29.6169 28.2553 29.9029 27.6394 30.1426C27.1751 30.3237 26.4758 30.538 25.1897 30.5964C23.7992 30.6604 23.3815 30.6732 19.8587 30.6732C16.3359 30.6732 15.9193 30.6604 14.5292 30.5964M14.42 6.74664C13.0157 6.81059 12.0561 7.03327 11.218 7.35936C10.3506 7.69612 9.61538 8.14791 8.88119 8.88094C8.14699 9.61398 7.69636 10.3493 7.35961 11.2178C7.03351 12.0563 6.81083 13.0154 6.74688 14.4198C6.68187 15.8263 6.66699 16.276 6.66699 19.8584C6.66699 23.4408 6.68187 23.8905 6.74688 25.2971C6.81083 26.7015 7.03351 27.6605 7.35961 28.4991C7.69636 29.3664 8.1471 30.1032 8.88119 30.8359C9.61528 31.5686 10.3496 32.0198 11.218 32.3575C12.0576 32.6836 13.0157 32.9062 14.42 32.9702C15.8273 33.0341 16.2762 33.0501 19.8587 33.0501C23.4411 33.0501 23.8908 33.0352 25.2973 32.9702C26.7018 32.9062 27.6607 32.6836 28.4993 32.3575C29.3667 32.0198 30.1019 31.5689 30.8361 30.8359C31.5703 30.1028 32.02 29.3664 32.3577 28.4991C32.6838 27.6605 32.9075 26.7014 32.9704 25.2971C33.0344 23.8895 33.0493 23.4408 33.0493 19.8584C33.0493 16.276 33.0344 15.8263 32.9704 14.4198C32.9065 13.0153 32.6838 12.0558 32.3577 11.2178C32.02 10.3504 31.5692 9.61514 30.8361 8.88094C30.1031 8.14675 29.3667 7.69612 28.5004 7.35936C27.6607 7.03327 26.7017 6.80953 25.2984 6.74664C23.8916 6.68237 23.4421 6.66675 19.8602 6.66675C16.2783 6.66675 15.8278 6.68163 14.4205 6.74664" fill="white"/>
</svg>
