<svg width="46" height="46" viewBox="0 0 46 46" fill="none" xmlns="http://www.w3.org/2000/svg">
<path d="M35.4213 28.5227C37.6676 24.6046 38.4147 20.004 37.5236 15.5764C36.6325 11.1487 34.1639 7.19535 30.5767 4.45127C26.9895 1.70718 22.5279 0.359124 18.0214 0.657749C13.5148 0.956374 9.27008 2.88136 6.07633 6.07478C2.88259 9.26821 0.957188 13.5128 0.658116 18.0193C0.359043 22.5258 1.70665 26.9875 4.45038 30.575C7.19412 34.1625 11.1473 36.6315 15.5748 37.523C20.0023 38.4146 24.603 37.6679 28.5214 35.4219L37.5126 44.4132C38.1081 45.0034 38.9126 45.3346 39.7511 45.3346C40.5895 45.3346 41.394 45.0034 41.9895 44.4132L44.4122 41.9902C45.0032 41.3952 45.3349 40.5906 45.3349 39.7519C45.3349 38.9133 45.0032 38.1087 44.4122 37.5136L35.4213 28.5227ZM2.52676 19.2776C2.52676 15.9646 3.50918 12.7259 5.3498 9.97126C7.19041 7.21659 9.80655 5.06958 12.8674 3.80174C15.9282 2.5339 19.2963 2.20218 22.5456 2.84851C25.795 3.49485 28.7797 5.09022 31.1224 7.43287C33.465 9.77553 35.0604 12.7603 35.7067 16.0096C36.3531 19.259 36.0214 22.627 34.7535 25.6879C33.4857 28.7487 31.3387 31.3648 28.584 33.2054C25.8293 35.0461 22.5907 36.0285 19.2777 36.0285C14.8367 36.0232 10.5791 34.2567 7.43883 31.1164C4.29857 27.9762 2.53205 23.7186 2.52677 19.2776H2.52676ZM43.0963 40.6742L40.6736 43.0973C40.4237 43.332 40.0938 43.4626 39.7511 43.4626C39.4083 43.4626 39.0784 43.332 38.8286 43.0973L30.1217 34.3904C31.7653 33.2076 33.2066 31.7664 34.3896 30.1229L43.0963 38.8296C43.3381 39.0756 43.4736 39.4069 43.4736 39.7519C43.4736 40.0969 43.3381 40.4282 43.0963 40.6742H43.0963ZM19.2777 6.24908C16.7009 6.24908 14.182 7.01318 12.0395 8.44477C9.89694 9.87636 8.22704 11.9111 7.24095 14.2918C6.25485 16.6724 5.99684 19.292 6.49955 21.8193C7.00226 24.3466 8.2431 26.668 10.0652 28.4901C11.8872 30.3122 14.2087 31.553 16.736 32.0557C19.2633 32.5584 21.8829 32.3004 24.2635 31.3143C26.6441 30.3282 28.6789 28.6584 30.1105 26.5158C31.5421 24.3733 32.3062 21.8544 32.3062 19.2776C32.3022 15.8234 30.9282 12.5119 28.4858 10.0695C26.0433 7.62705 22.7318 6.25311 19.2777 6.24908ZM19.2777 30.4449C17.069 30.4449 14.9099 29.7899 13.0735 28.5628C11.237 27.3358 9.8057 25.5917 8.96047 23.5511C8.11524 21.5106 7.89409 19.2652 8.32499 17.0989C8.75588 14.9327 9.81946 12.9429 11.3812 11.3811C12.943 9.81934 14.9328 8.75576 17.0991 8.32486C19.2653 7.89397 21.5107 8.11512 23.5512 8.96035C25.5918 9.80557 27.3359 11.2369 28.563 13.0734C29.79 14.9098 30.445 17.0689 30.445 19.2776C30.4417 22.2383 29.2642 25.0769 27.1706 27.1705C25.077 29.264 22.2385 30.4416 19.2777 30.4449ZM19.2777 10.9021V12.7633C17.5507 12.7654 15.895 13.4524 14.6737 14.6736C13.4525 15.8948 12.7656 17.5505 12.7635 19.2776H10.9022C10.9046 17.057 11.7878 14.9281 13.358 13.3579C14.9282 11.7877 17.0571 10.9045 19.2777 10.9021Z" fill="#333333"/>
</svg>
