<svg width="40" height="40" viewBox="0 0 40 40" fill="none" xmlns="http://www.w3.org/2000/svg">
<rect width="40" height="40" rx="6" fill="#333333"/>
<path d="M21.1384 31.6667C19.1077 31.6667 17.2997 31.391 15.7145 30.8394C14.1294 30.2942 12.7893 29.4923 11.6943 28.4336C10.5993 27.3812 9.76538 26.0943 9.19243 24.5728C8.61948 23.0513 8.33301 21.3206 8.33301 19.3807C8.33301 17.4662 8.61948 15.7291 9.19243 14.1696C9.77175 12.6101 10.6153 11.2724 11.723 10.1567C12.8307 9.03457 14.1835 8.17239 15.7814 7.57013C17.3856 6.96788 19.2127 6.66675 21.2626 6.66675C23.1597 6.66675 24.8531 6.94252 26.3427 7.49406C27.8388 8.0456 29.1056 8.8317 30.1433 9.85237C31.1873 10.8667 31.9799 12.0744 32.521 13.4754C33.0685 14.8701 33.3391 16.4138 33.3327 18.1065C33.3391 19.2729 33.2372 20.3443 33.0272 21.3206C32.8171 22.2969 32.486 23.1496 32.034 23.8786C31.5884 24.6013 31.0027 25.1751 30.277 25.5998C29.5513 26.0182 28.6727 26.2559 27.6414 26.313C26.903 26.3701 26.3045 26.3162 25.8462 26.1513C25.3878 25.9865 25.0377 25.7424 24.7958 25.4191C24.5602 25.0895 24.4074 24.7059 24.3374 24.2685H24.2228C24.07 24.6489 23.7708 24.9944 23.3252 25.305C22.8796 25.6093 22.3353 25.847 21.6923 26.0182C21.0557 26.183 20.3777 26.2433 19.6583 26.1989C18.9071 26.1545 18.1941 25.9802 17.5193 25.6759C16.8509 25.3716 16.2556 24.931 15.7336 24.3541C15.218 23.7772 14.8105 23.064 14.5113 22.2145C14.2185 21.365 14.0689 20.3824 14.0625 19.2666C14.0689 18.1635 14.2248 17.2031 14.5304 16.3853C14.8424 15.5675 15.253 14.8796 15.7623 14.3217C16.2779 13.7639 16.8509 13.3264 17.4811 13.0095C18.1114 12.6925 18.7448 12.4896 19.3814 12.4009C20.1008 12.2931 20.7819 12.2931 21.4249 12.4009C22.0679 12.5086 22.609 12.683 23.0483 12.9239C23.4939 13.1648 23.7708 13.4247 23.8791 13.7036H24.0127V12.6386H27.0016V21.9197C27.008 22.3571 27.1067 22.6963 27.2977 22.9372C27.4886 23.1781 27.7465 23.2985 28.0711 23.2985C28.5104 23.2985 28.8764 23.1052 29.1693 22.7185C29.4685 22.3318 29.6913 21.739 29.8377 20.9402C29.9905 20.1415 30.0669 19.124 30.0669 17.8877C30.0669 16.6959 29.9078 15.6499 29.5895 14.7497C29.2775 13.8431 28.8383 13.0729 28.2717 12.4389C27.7115 11.7986 27.0589 11.2788 26.3141 10.8794C25.5693 10.48 24.7608 10.1884 23.8886 10.0045C23.0228 9.82067 22.1316 9.72875 21.2148 9.72875C19.6297 9.72875 18.245 9.96965 17.0609 10.4515C15.8768 10.9269 14.8901 11.5957 14.1007 12.4579C13.3113 13.3201 12.7193 14.3313 12.3246 15.4914C11.9362 16.6452 11.7389 17.9036 11.7325 19.2666C11.7389 20.7691 11.949 22.1004 12.3628 23.2605C12.7829 24.4143 13.4004 25.3843 14.2153 26.1704C15.0302 26.9565 16.036 27.5524 17.2328 27.9581C18.4297 28.3638 19.8047 28.5667 21.3581 28.5667C22.0902 28.5667 22.8064 28.5128 23.5066 28.4051C24.2069 28.3036 24.8403 28.1768 25.4069 28.0247C25.9735 27.8789 26.4287 27.7362 26.7724 27.5968L27.7178 30.3545C27.3168 30.5827 26.7724 30.7951 26.0849 30.9916C25.4037 31.1945 24.6334 31.3561 23.774 31.4766C22.921 31.6033 22.0424 31.6667 21.1384 31.6667ZM20.6992 23.0703C21.4758 23.0703 22.0934 22.9213 22.5517 22.6234C23.0164 22.3254 23.3475 21.8848 23.5448 21.3016C23.7485 20.712 23.844 19.9861 23.8313 19.124C23.8249 18.3632 23.7263 17.7197 23.5353 17.1936C23.3507 16.661 23.0292 16.2585 22.5708 15.9859C22.1188 15.7069 21.4886 15.5675 20.6801 15.5675C19.9734 15.5675 19.3718 15.7164 18.8753 16.0144C18.3851 16.3124 18.0095 16.7308 17.7485 17.2696C17.4938 17.8022 17.3633 18.4298 17.357 19.1525C17.3633 19.8245 17.4716 20.4616 17.6816 21.0639C17.8917 21.6598 18.2387 22.1447 18.7225 22.5188C19.2063 22.8865 19.8652 23.0703 20.6992 23.0703Z" fill="white"/>
</svg>
