<svg width="33" height="100" viewBox="0 0 33 100" fill="none" xmlns="http://www.w3.org/2000/svg">
<rect x="0.5" width="32" height="32" rx="16" fill="#508468"/>
<path d="M20.1623 21.479C20.3363 21.479 20.4743 21.53 20.5763 21.632C20.6783 21.734 20.7293 21.866 20.7293 22.028V23H12.1253V22.451C12.1253 22.337 12.1493 22.22 12.1973 22.1C12.2453 21.98 12.3203 21.869 12.4223 21.767L16.5533 17.618C16.8953 17.27 17.2073 16.937 17.4893 16.619C17.7713 16.295 18.0113 15.971 18.2093 15.647C18.4073 15.323 18.5603 14.996 18.6683 14.666C18.7763 14.33 18.8303 13.973 18.8303 13.595C18.8303 13.217 18.7703 12.887 18.6503 12.605C18.5303 12.317 18.3653 12.08 18.1553 11.894C17.9513 11.708 17.7083 11.57 17.4263 11.48C17.1443 11.384 16.8413 11.336 16.5173 11.336C16.1873 11.336 15.8843 11.384 15.6083 11.48C15.3323 11.576 15.0863 11.711 14.8703 11.885C14.6603 12.053 14.4833 12.254 14.3393 12.488C14.1953 12.722 14.0933 12.98 14.0333 13.262C13.9613 13.472 13.8623 13.613 13.7363 13.685C13.6163 13.751 13.4453 13.769 13.2233 13.739L12.3863 13.595C12.4703 13.007 12.6323 12.488 12.8723 12.038C13.1183 11.582 13.4243 11.201 13.7903 10.895C14.1623 10.589 14.5853 10.358 15.0593 10.202C15.5333 10.04 16.0463 9.959 16.5983 9.959C17.1443 9.959 17.6543 10.04 18.1283 10.202C18.6023 10.364 19.0133 10.601 19.3613 10.913C19.7093 11.219 19.9823 11.594 20.1803 12.038C20.3783 12.482 20.4773 12.986 20.4773 13.55C20.4773 14.03 20.4053 14.477 20.2613 14.891C20.1173 15.299 19.9223 15.689 19.6763 16.061C19.4303 16.433 19.1453 16.796 18.8213 17.15C18.5033 17.504 18.1643 17.861 17.8043 18.221L14.4023 21.695C14.6423 21.629 14.8853 21.578 15.1313 21.542C15.3773 21.5 15.6143 21.479 15.8423 21.479H20.1623Z" fill="#F3F3F3"/>
<rect width="0" height="56" transform="translate(16.5 38)" fill="#333333"/>
<path d="M16.5 38V94" stroke="#333333"/>
</svg>
