<svg width="411" height="288" viewBox="0 0 411 288" fill="none" xmlns="http://www.w3.org/2000/svg">
<g clip-path="url(#clip0_3188_10940)">
<path d="M363.827 53.898C375.951 53.898 385.78 44.069 385.78 31.9443C385.78 19.8197 375.951 9.99072 363.827 9.99072C351.702 9.99072 341.873 19.8197 341.873 31.9443C341.873 44.069 351.702 53.898 363.827 53.898Z" fill="#FF6584"/>
<path d="M281.55 89.7803L264.35 56.0072L281.603 85.5631L281.759 73.4744L269.939 49.0606L281.803 70.2782L282.084 48.538L269.234 28.999L282.127 45.1192L283.066 5.43386L283.07 5.26904L283.071 5.43664L282.923 55.7902L297.109 35.4067L282.963 60.0599L283.523 84.3648L283.581 83.7223L299.94 62.2185L283.562 85.9974L283.633 89.0372L283.66 89.0851L283.64 89.3333L284.382 121.502C283.311 121.547 282.23 121.565 281.138 121.557L281.169 119.054L266.244 94.4214L281.2 116.662L281.55 89.7803Z" fill="#3F3D56"/>
<path d="M201.41 109.077L184.209 75.3041L201.462 104.86L201.619 92.7713L189.799 68.3575L201.662 89.5751L201.944 67.8349L189.093 48.2959L201.986 64.4161L202.925 24.7307L202.93 24.5659L202.93 24.7335L202.782 75.0871L216.968 54.7035L202.822 79.3567L203.383 103.662L203.441 103.019L219.799 81.5154L203.421 105.294L203.492 108.334L203.52 108.382L203.499 108.63L204.241 140.799C203.171 140.844 202.089 140.862 200.997 140.854L201.029 138.351L186.104 113.718L201.059 135.959L201.41 109.077Z" fill="#CBCBCB"/>
<path d="M350.521 84.5112L333.32 50.7381L350.573 80.294L350.73 68.2054L338.91 43.7916L350.774 65.0092L351.055 43.269L338.205 23.73L351.097 39.8502L352.036 0.164821L352.041 0L352.041 0.167592L351.893 50.5211L366.08 30.1377L351.934 54.7908L352.494 79.0957L352.552 78.4532L368.911 56.9495L352.533 80.7283L352.604 83.7681L352.631 83.8161L352.611 84.0643L353.352 116.233C352.282 116.278 351.201 116.296 350.109 116.288L350.14 113.785L335.215 89.1524L350.171 111.393L350.521 84.5112Z" fill="#3F3D56"/>
<path d="M54.4184 200.567C64.4378 193.181 74.9449 186.481 85.8681 180.513C116.418 163.655 153.987 149.24 196.699 138.074C199.634 137.304 202.593 136.552 205.577 135.816C211.915 134.248 218.357 132.754 224.905 131.336C226.522 130.987 228.144 130.64 229.77 130.294C238.882 128.378 248.176 126.609 257.652 124.987C257.842 124.953 258.032 124.922 258.227 124.892C260.451 124.507 262.686 124.135 264.93 123.776C309.778 116.489 358.38 112.48 409.157 112.419C409.576 112.415 410 112.415 410.419 112.415V288H0C0 256.166 19.7987 226.312 54.4184 200.567Z" fill="#F1F1F1"/>
<path d="M135.966 220.594C153.456 207.589 175.849 195.943 202.07 186.121C204.981 185.027 207.939 183.959 210.945 182.917C211.364 182.77 211.788 182.623 212.212 182.476C216.039 181.161 219.94 179.881 223.914 178.635C230.631 176.536 237.537 174.553 244.634 172.684C249.714 171.342 254.884 170.064 260.143 168.848C261.832 168.453 263.529 168.07 265.233 167.698C269.107 166.836 273.026 166.011 276.992 165.224C317.537 157.146 362.748 152.635 410.42 152.635V288H94.0117C94.0117 263.457 109.278 240.44 135.966 220.594Z" fill="#8FBF26"/>
<path d="M127.672 280.977L128.455 281.349C131.112 275.846 134.357 270.648 138.133 265.844L137.45 265.312C133.637 270.167 130.358 275.419 127.672 280.977ZM149.949 251.733L150.541 252.364C154.785 248.418 159.246 244.713 163.905 241.267C164.164 241.072 164.428 240.877 164.692 240.683L164.177 239.987C163.913 240.181 163.65 240.376 163.386 240.575C158.703 244.041 154.217 247.766 149.949 251.733ZM179.543 229.776L179.988 230.515C185.031 227.471 190.441 224.478 196.064 221.619L195.67 220.845C190.031 223.717 184.603 226.723 179.543 229.776ZM212.355 213.004L212.697 213.796C218.159 211.422 223.898 209.104 229.745 206.911L229.442 206.102C223.578 208.299 217.83 210.621 212.355 213.004ZM246.841 200.026L247.104 200.848C248.635 200.35 250.171 199.862 251.723 199.373C255.953 198.054 260.321 196.756 264.71 195.528L264.477 194.693C260.079 195.926 255.702 197.223 251.464 198.551C249.913 199.037 248.371 199.529 246.841 200.026H246.841ZM287.722 188.755C285.91 189.171 284.085 189.603 282.304 190.036L282.507 190.875C284.289 190.447 286.109 190.014 287.921 189.595C289.638 189.197 291.347 188.807 293.003 188.448C295.472 187.899 297.981 187.359 300.455 186.848L300.282 186.001C297.799 186.515 295.291 187.052 292.817 187.601C291.161 187.964 289.444 188.353 287.723 188.756L287.722 188.755ZM318.376 182.55L318.528 183.402C324.483 182.359 330.598 181.382 336.696 180.5L336.571 179.643C330.464 180.53 324.344 181.507 318.376 182.55ZM354.843 177.26L354.942 178.121C360.971 177.42 367.129 176.789 373.249 176.24L373.171 175.379C367.047 175.928 360.88 176.56 354.843 177.26H354.843ZM391.547 173.982L391.599 174.847C397.671 174.462 403.855 174.151 409.979 173.922L409.949 173.057C403.812 173.29 397.623 173.602 391.547 173.982H391.547Z" fill="white"/>
<path d="M218.392 240.839C256.605 212.421 328.292 193.288 410.419 193.288V288H189.035C189.035 270.831 199.717 254.726 218.392 240.839Z" fill="#F1F1F1"/>
<path opacity="0.2" d="M54.4184 200.566L135.966 220.594L218.392 240.839L410.419 288H0C0 256.166 19.7987 226.312 54.4184 200.566Z" fill="black"/>
<path d="M103.988 182.435L101.217 182.434L99.8984 171.746H103.988L103.988 182.435Z" fill="#FFB7B7"/>
<path d="M104.695 185.121L95.7598 185.121V185.008C95.7598 184.086 96.1263 183.201 96.7785 182.549C97.4307 181.897 98.3152 181.53 99.2376 181.53H99.2378L104.695 181.53L104.695 185.121Z" fill="#2F2E41"/>
<path d="M128.469 180.393L125.793 181.112L121.748 171.131L125.698 170.07L128.469 180.393Z" fill="#FFB7B7"/>
<path d="M129.846 182.805L121.217 185.121L121.187 185.012C120.948 184.121 121.073 183.172 121.534 182.373C121.994 181.574 122.754 180.991 123.644 180.752L123.645 180.752L128.915 179.337L129.846 182.805Z" fill="#2F2E41"/>
<path d="M92.4488 132.866C90.8472 134.926 95.8808 152.086 96.1097 152.314C96.3385 152.543 95.8809 153.916 95.8809 153.916C95.8798 154.164 95.9602 154.405 96.1097 154.602C96.3384 154.831 96.1097 155.06 96.1097 155.518C96.1097 155.975 96.1097 155.975 96.5673 156.89C96.8414 157.54 96.9208 158.256 96.7961 158.95L99.7705 176.339C99.5506 176.433 99.366 176.595 99.2428 176.8C99.1196 177.005 99.0641 177.244 99.0841 177.483C99.0841 178.398 103.66 178.855 105.262 178.627C106.863 178.398 104.118 158.034 104.118 158.034C104.118 158.034 104.118 152.772 104.575 152.314C105.033 151.857 104.575 151.857 104.575 150.942C104.575 150.026 103.889 148.654 104.118 147.967C104.347 147.281 104.575 137.442 104.575 137.442C104.575 137.442 109.838 147.281 109.838 148.654C109.838 150.026 111.439 152.314 111.439 152.314L121.964 173.785C121.964 173.785 121.278 175.158 121.964 176.302C122.651 177.446 125.625 176.531 128.599 175.387C131.574 174.243 127.455 172.412 127.455 172.412L121.049 154.145C121.064 153.453 121.141 152.764 121.278 152.086C121.507 150.942 120.591 151.399 119.905 150.942C119.219 150.484 119.447 150.484 119.905 149.569C120.363 148.654 119.219 146.594 119.219 146.594L116.244 129.663C116.244 129.663 94.0504 130.807 92.4488 132.866Z" fill="#2F2E41"/>
<path d="M99.8219 91.6233C103.107 91.6233 105.771 88.9599 105.771 85.6744C105.771 82.389 103.107 79.7256 99.8219 79.7256C96.5364 79.7256 93.873 82.389 93.873 85.6744C93.873 88.9599 96.5364 91.6233 99.8219 91.6233Z" fill="#FFB8B8"/>
<path d="M97.6088 93.4361C97.6088 93.4361 89.4931 97.1549 88.8067 98.9853C88.1203 100.816 93.1356 117.765 93.1356 117.765C93.1356 117.765 93.4399 124.892 92.5247 127.638C91.6095 130.383 91.7628 130.807 91.7628 130.807V132.866C91.7628 134.01 99.0845 133.095 102.745 131.951C106.406 130.807 115.787 131.036 116.702 130.807C117.617 130.578 115.172 127.638 115.172 127.638C118.375 127.409 115.172 120.705 115.172 120.705C115.172 120.705 114.844 99.0036 113.929 96.0292C113.014 93.0548 104.542 92.5117 104.542 92.5117L100.228 93.97L97.6088 93.4361Z" fill="#8FBF26"/>
<path d="M107.027 84.1084C107.333 82.6199 107.043 81.0706 106.217 79.7946C105.727 79.0457 105.086 78.4072 104.336 77.9196C103.585 77.4321 102.741 77.1062 101.858 76.9627C100.11 76.713 98.3273 77.0149 96.7591 77.8263C95.8097 78.2921 94.7825 78.9168 93.7885 78.5758L94.0805 79.0997L93.341 79.1083L93.6112 79.7212L92.9053 79.822L93.4513 80.1496C92.7215 81.4494 92.2296 82.869 91.9987 84.3417C91.8598 84.9239 91.9054 85.5349 92.1293 86.09C92.3965 86.6122 93.0859 86.9172 93.5271 86.5571C93.804 86.3312 93.8982 85.9347 94.0924 85.6246C94.2866 85.3144 94.7328 85.0981 94.9641 85.3771L95.5609 84.184L96.0387 84.573C97.1891 83.5608 98.5168 82.77 99.9548 82.2407C100.13 82.1494 100.323 82.0992 100.52 82.0938C100.717 82.0885 100.912 82.1281 101.092 82.2097C101.625 82.5513 101.548 83.4255 101.917 83.9624C102.518 84.8354 103.997 84.4729 104.566 85.3702C104.733 85.7268 104.846 86.1064 104.901 86.4963C105.002 86.8773 105.247 87.2779 105.615 87.3025C106.39 86.5032 106.686 85.395 107.027 84.1084Z" fill="#2F2E41"/>
<path d="M121.386 131.349C121.083 131.143 120.827 130.873 120.639 130.558C120.451 130.243 120.334 129.891 120.297 129.526C120.259 129.161 120.302 128.792 120.423 128.446C120.544 128.099 120.739 127.783 120.994 127.52L116.994 119.549L121.597 120.094L124.69 127.58C125.103 128.039 125.334 128.634 125.338 129.252C125.342 129.87 125.119 130.467 124.712 130.932C124.305 131.396 123.741 131.695 123.128 131.772C122.515 131.849 121.896 131.698 121.386 131.349L121.386 131.349Z" fill="#FFB8B8"/>
<path d="M118.089 125.628L113.425 110.532L108.103 98.9905C107.878 98.5032 107.767 97.9714 107.778 97.435C107.789 96.8986 107.922 96.3717 108.166 95.8941C108.411 95.4165 108.761 95.0007 109.189 94.6781C109.618 94.3555 110.114 94.1345 110.641 94.0318C111.476 93.8732 112.34 94.0184 113.077 94.4411C113.814 94.8638 114.375 95.5362 114.66 96.3367L124.367 124.041C124.419 124.192 124.439 124.352 124.425 124.511C124.411 124.669 124.364 124.824 124.286 124.963C124.208 125.102 124.101 125.222 123.972 125.317C123.844 125.412 123.697 125.478 123.541 125.511L119.396 126.395C119.318 126.411 119.238 126.42 119.157 126.42C118.918 126.42 118.685 126.343 118.492 126.2C118.3 126.058 118.159 125.857 118.089 125.628Z" fill="#8FBF26"/>
<path d="M89.2751 136.562C89.5267 136.295 89.7168 135.976 89.8318 135.628C89.9468 135.279 89.9841 134.91 89.9409 134.546C89.8977 134.181 89.7752 133.831 89.5819 133.519C89.3887 133.207 89.1294 132.941 88.8223 132.741L90.9874 124.089L86.6147 125.625L85.2291 133.605C84.9259 134.143 84.8307 134.774 84.9615 135.378C85.0923 135.982 85.44 136.516 85.9387 136.881C86.4374 137.245 87.0525 137.414 87.6674 137.355C88.2823 137.297 88.8544 137.015 89.2751 136.562V136.562Z" fill="#FFB8B8"/>
<path d="M90.3721 131.266C90.2937 131.284 90.2136 131.293 90.1333 131.294L85.8958 131.335C85.7363 131.337 85.5784 131.304 85.4324 131.24C85.2864 131.176 85.1558 131.081 85.0493 130.963C84.9427 130.844 84.8626 130.704 84.8144 130.552C84.7661 130.4 84.7508 130.239 84.7694 130.081L88.1982 100.926C88.3014 100.083 88.7028 99.3043 89.3299 98.731C89.957 98.1576 90.7684 97.8275 91.6177 97.8002C92.154 97.7855 92.6866 97.8929 93.1754 98.1142C93.6641 98.3355 94.0962 98.665 94.4389 99.0777C94.7817 99.4905 95.0262 99.9757 95.1539 100.497C95.2817 101.018 95.2894 101.561 95.1764 102.086L92.4998 114.51L91.2419 130.26C91.224 130.499 91.1297 130.726 90.9731 130.907C90.8165 131.088 90.6058 131.214 90.3721 131.266Z" fill="#8FBF26"/>
</g>
<defs>
<clipPath id="clip0_3188_10940">
<rect width="410.419" height="288" fill="white"/>
</clipPath>
</defs>
</svg>
